<?xml version="1.0" encoding="utf-8"?>
<!-- Generator: Adobe Illustrator 16.0.0, SVG Export Plug-In . SVG Version: 6.00 Build 0)  -->
<!DOCTYPE svg PUBLIC "-//W3C//DTD SVG 1.1//EN" "http://www.w3.org/Graphics/SVG/1.1/DTD/svg11.dtd">
<svg version="1.1" id="图层_1" xmlns="http://www.w3.org/2000/svg" xmlns:xlink="http://www.w3.org/1999/xlink" x="0px" y="0px"
	 width="200px" height="200px" viewBox="0 0 200 200" enable-background="new 0 0 200 200" xml:space="preserve">
<path fill="#2592B8" d="M11.786,188.014c1.464-40.201,29.97-73.509,67.884-82.294c-17.028-7.618-28.891-24.7-28.891-44.549
	c0-7.998,1.928-15.546,5.339-22.208c-1.318-2.034-2.084-4.459-2.084-7.063c0-7.185,5.828-13.01,13.016-13.01
	c2.122,0,4.123,0.507,5.889,1.404c7.667-5.001,16.821-7.909,26.661-7.909c26.958,0,48.818,21.843,48.818,48.786
	c0,19.849-11.863,36.931-28.891,44.549c37.914,8.785,66.42,42.093,67.887,82.294H11.786z"/>
</svg>
